#!OML:ASF E:\emotionWalksFemale\Project 1\Capture day 1\Session 1\Female1.ASF
:FULLY-SPECIFIED
:DEGREES
905
root 9.48132 15.6351 -2.05637 180.551 -15.0073 -175.784
lowerback 5.19482 -0.0368854 2.32566
upperback -5.87781 0.0526502 1.25601
thorax -9.12671 -0.173121 0.0350613
lowerneck -7.06283 -5.2873 -9.71998
upperneck 17.173 -9.41904 13.4366
head 7.49333 -4.50372 5.13654
rclavicle 4.16827e-014 2.37548e-014
rhumerus -40.4678 6.49459 -84.5503
rradius 31.6211
rwrist 19.7087
rhand 0.249708 -53.7068
rfingers 7.12502
rthumb 25.8295 -81.973
lclavicle 4.16827e-014 2.37548e-014
lhumerus -43.3102 14.3888 63.9628
lradius 36.21
lwrist -11.2043
lhand -8.51157 -30.8418
lfingers 7.12502
lthumb 17.4166 -1.60205
rfemur -4.11842 24.4681 31.1248
rtibia 6.49808
rfoot -8.94352 -36.7835
rtoes 15.4686
lfemur -4.7364 -3.40048 -11.651
ltibia 57.2277
lfoot 7.8545 -2.83539
ltoes -12.9741
906
root 9.49762 15.6276 -2.12291 180.429 -15.1161 -175.689
lowerback 5.43335 0.0594621 2.4397
upperback -5.83279 0.207053 1.2342
thorax -9.21626 -0.103479 -0.0722211
lowerneck -6.97706 -5.49526 -9.94382
upperneck 17.1911 -9.78132 13.7497
head 7.55726 -4.67982 5.24276
rclavicle -1.26104e-014 1.68967e-015
rhumerus -39.7531 6.71232 -84.5397
rradius 30.9623
rwrist 20.3935
rhand 0.911114 -54.3659
rfingers 7.12502
rthumb 26.4628 -82.5384
lclavicle -1.26104e-014 1.68967e-015
lhumerus -42.9331 14.7783 64.0662
lradius 36.3726
lwrist -12.0114
lhand -9.02733 -30.7379
lfingers 7.12502
lthumb 16.9201 -1.45494
rfemur -3.56925 24.1799 31.5345
rtibia 6.20288
rfoot -9.62318 -36.5942
rtoes 17.5531
lfemur -5.75039 -3.29731 -11.4348
ltibia 58.8437
lfoot 6.90979 -2.0586
ltoes -12.6818
907
root 9.51687 15.6188 -2.18853 180.323 -15.2263 -175.537
lowerback 5.56613 0.108974 2.50805
upperback -5.73914 0.29509 1.28368
thorax -9.19092 -0.0590939 -0.0708851
lowerneck -7.08612 -5.65756 -10.0107
upperneck 17.2622 -10.0236 13.8195
head 7.63986 -4.79016 5.2482
rclavicle -3.75206e-015 1.67973e-014
rhumerus -38.9714 6.97771 -84.5542
rradius 30.3949
rwrist 21.211
rhand 1.51675 -55.1506
rfingers 7.12502
rthumb 27.0423 -83.2344
lclavicle -3.75206e-015 1.67973e-014
lhumerus -42.7184 15.3852 64.1808
lradius 36.8157
lwrist -12.7465
lhand -9.41836 -30.8781
lfingers 7.12502
lthumb 16.5437 -1.56337
rfemur -3.22417 23.898 32.003
rtibia 6.22723
rfoot -11.0704 -36.4006
rtoes 21.3035
lfemur -6.79018 -3.32561 -11.1857
ltibia 60.3168
lfoot 5.75353 -1.28249
ltoes -11.3514
908
root 9.53665 15.6112 -2.25584 180.125 -15.2855 -175.451
lowerback 5.71564 0.175724 2.46953
upperback -5.58032 0.400143 1.33234
thorax -9.10399 0.00385661 -0.0139896
lowerneck -6.96514 -5.75486 -10.1955
upperneck 17.0574 -10.1622 14.0546
head 7.59193 -4.85708 5.34516
rclavicle 3.00289e-014 -2.48481e-015
rhumerus -38.188 7.06996 -84.4771
rradius 30.0126
rwrist 22.0021
rhand 1.66784 -55.1819
rfingers 7.12502
rthumb 27.1869 -83.2432
lclavicle 3.00289e-014 -2.48481e-015
lhumerus -42.3737 16.1245 64.297
lradius 36.8292
lwrist -13.2922
lhand -9.78894 -31.4327
lfingers 7.12502
lthumb 16.1869 -2.08856
rfemur -2.7554 23.6403 32.4621
rtibia 6.27487
rfoot -11.7933 -36.2406
rtoes 23.3708
lfemur -7.73302 -3.30369 -11.0672
ltibia 61.629
lfoot 4.42703 -0.90417
ltoes -14.1792
909
root 9.55421 15.6062 -2.32554 179.86 -15.2484 -175.445
lowerback 5.91222 0.291981 2.38691
upperback -5.41611 0.566392 1.32111
thorax -9.03798 0.0979519 -0.00459756
lowerneck -6.57178 -5.87997 -10.4078
upperneck 16.7889 -10.3783 14.3466
head 7.4892 -4.9774 5.46415
rclavicle 5.44422e-014 1.76918e-014
rhumerus -37.4868 7.12979 -84.4148
rradius 29.6552
rwrist 22.8399
rhand 1.27379 -54.4806
rfingers 7.12502
rthumb 26.8099 -82.6003
lclavicle 5.44422e-014 1.76918e-014
lhumerus -41.9666 16.4507 64.5092
lradius 36.7179
lwrist -13.2719
lhand -9.8272 -31.9418
lfingers 7.12502
lthumb 16.15 -2.59464
rfemur -2.16447 23.4513 32.8607
rtibia 6.23742
rfoot -11.6317 -36.1196
rtoes 23.9844
lfemur -8.56509 -3.1659 -11.0607
ltibia 62.805
lfoot 3.02896 -0.34465
ltoes -15.161
910
root 9.57084 15.6022 -2.38984 179.726 -15.2401 -175.346
lowerback 6.07683 0.368101 2.42168
upperback -5.3704 0.68425 1.35249
thorax -9.0836 0.155962 -0.0079649
lowerneck -6.10626 -6.04298 -10.4659
upperneck 16.5871 -10.6492 14.4287
head 7.38412 -5.13407 5.48244
rclavicle 1.33186e-014 -5.06901e-015
rhumerus -36.8603 7.63333 -84.4784
rradius 29.1691
rwrist 23.655
rhand 1.31167 -54.0218
rfingers 7.12502
rthumb 26.8461 -82.136
lclavicle 1.33186e-014 -5.06901e-015
lhumerus -41.8198 16.3821 64.9262
lradius 36.9098
lwrist -12.8031
lhand -9.93908 -31.9423
lfingers 7.12502
lthumb 16.0423 -2.58641
rfemur -1.84621 23.2657 33.2592
rtibia 6.29492
rfoot -11.2523 -35.9858
rtoes 23.7909
lfemur -9.63145 -3.04383 -10.9436
ltibia 63.894
lfoot 1.62047 0.211678
ltoes -16.2887
911
root 9.5863 15.5979 -2.45079 179.701 -15.302 -175.37
lowerback 6.13818 0.422293 2.31839
upperback -5.30262 0.755511 1.39405
thorax -9.04616 0.201705 0.0831772
lowerneck -5.68557 -6.17048 -10.6083
upperneck 16.1212 -10.8457 14.74
head 7.2108 -5.24167 5.59842
rclavicle 8.69683e-015 1.68967e-015
rhumerus -36.2059 8.23118 -84.5478
rradius 28.772
rwrist 24.3371
rhand 1.24891 -53.9518
rfingers 7.12502
rthumb 26.7861 -82.0752
lclavicle 8.69683e-015 1.68967e-015
lhumerus -41.5242 16.8334 65.317
lradius 36.769
lwrist -12.8407
lhand -10.5081 -31.9949
lfingers 7.12502
lthumb 15.4943 -2.59576
rfemur -1.65595 23.0295 33.508
rtibia 6.49394
rfoot -11.176 -35.8326
rtoes 23.33
lfemur -10.8146 -3.05692 -11.0201
ltibia 64.8691
lfoot 0.468568 0.713211
ltoes -17.4567
